<svg width="28" height="26" viewBox="0 0 28 26" fill="none" xmlns="http://www.w3.org/2000/svg">
<path d="M17.1528 1.73575L15.9192 5.488L14.6857 1.73575C14.4587 1.04409 14.8263 0.29864 15.5072 0.068502C16.1894 -0.162887 16.9258 0.211087 17.1528 0.901501C17.2453 1.18417 17.2391 1.47434 17.1528 1.73575ZM23.7694 5.55054L20.2798 7.32035L22.0252 3.78198C22.3472 3.13034 23.128 2.86768 23.7694 3.19162C24.4121 3.51807 24.6712 4.3098 24.3517 4.96144C24.2197 5.22659 24.0137 5.42672 23.7694 5.55054ZM25.7875 12.9925L22.0869 11.7418L25.7875 10.491C26.4697 10.2596 27.2048 10.6336 27.4331 11.3253C27.66 12.0157 27.2912 12.7611 26.6091 12.9925C26.3315 13.0863 26.0453 13.0788 25.7875 12.9925ZM9.81321 3.78198L11.5587 7.32035L8.06899 5.55054C7.42631 5.22409 7.16604 4.43237 7.48676 3.78198C7.80871 3.13034 8.59077 2.86768 9.23098 3.19162C9.49372 3.32545 9.69109 3.53433 9.81321 3.78198ZM21.1938 13.4203C21.3653 12.8899 21.4701 12.3309 21.4701 11.7418C21.4701 8.63864 18.9796 6.11338 15.9192 6.11338C14.2663 6.11338 12.7897 6.85632 11.7782 8.02452L11.6018 7.9895C9.41107 7.9895 7.44605 8.96509 6.08916 10.5048C5.79311 10.4047 5.50693 10.3972 5.22938 10.491C4.54724 10.7224 4.17841 11.4678 4.40538 12.1583C4.47569 12.3671 4.60028 12.5322 4.74707 12.6723C4.39798 13.5441 4.20061 14.4959 4.20061 15.494L4.20308 15.6516C2.07523 16.2082 0.5 18.1694 0.5 20.497C0.5 23.2562 2.7142 25.5 5.43415 25.5H19.0031C22.4039 25.5 25.1707 22.6946 25.1707 19.2463C25.1707 16.5834 23.5129 14.3195 21.1938 13.4203ZM15.9192 8.61488C17.6203 8.61488 19.0031 10.017 19.0031 11.7418C19.0031 12.1995 18.8846 12.6248 18.7095 13.0163C18.2728 13.0425 17.8213 13.1088 17.3304 13.2514C16.6877 11.5591 15.3518 10.2308 13.6705 9.61798C14.233 9.00511 15.0298 8.61488 15.9192 8.61488ZM19.0031 22.9985H5.43415C4.07232 22.9985 2.96707 21.8766 2.96707 20.497C2.96707 19.1174 4.07232 17.9955 5.32066 17.988L7.07475 18.008L6.76884 16.5046C6.70099 16.1757 6.66769 15.8342 6.66769 15.494C6.66769 12.7348 8.88189 10.491 11.6018 10.491L11.687 10.4735C14.0356 10.5423 15.9982 12.232 16.4324 14.5634L16.4792 14.7961C16.631 15.3414 17.117 15.6791 17.6462 15.6866L18.0027 15.6578C18.3875 15.5453 18.7045 15.494 19.0031 15.494C21.0433 15.494 22.7037 17.1775 22.7037 19.2463C22.7037 21.315 21.0433 22.9985 19.0031 22.9985Z" fill="#0F1D3B"/>
</svg>
