<svg width="33" height="26" viewBox="0 0 33 26" fill="none" xmlns="http://www.w3.org/2000/svg">
<path d="M24.75 25.5H6.6C2.9601 25.5 0 22.2324 0 18.2143C0 14.8246 2.10705 11.9686 4.95165 11.1581L4.95 10.9286C4.95 4.90146 9.39015 0 14.85 0C19.1185 0 22.8096 2.9835 24.1725 7.31304C29.0268 6.86496 33 11.1617 33 16.3929C33 21.4145 29.299 25.5 24.75 25.5ZM6.44325 14.5605C4.78005 14.5714 3.3 16.2052 3.3 18.2143C3.3 20.2233 4.78005 21.8571 6.6 21.8571H24.75C27.4791 21.8571 29.7 19.4055 29.7 16.3929C29.7 13.3802 27.4791 10.9286 24.75 10.9286C24.349 10.9286 23.925 11.0032 23.4135 11.1654L21.6397 11.7245L21.3328 9.7155C20.7966 6.1965 18.0708 3.64286 14.85 3.64286C11.2101 3.64286 8.25 6.9105 8.25 10.9286C8.25 11.424 8.29455 11.9212 8.3853 12.4057L8.7879 14.5896L6.44325 14.5605Z" fill="#0F1D3B"/>
</svg>
