<svg width="60" height="40" viewBox="0 0 60 40" fill="none" xmlns="http://www.w3.org/2000/svg">
<path d="M30.0006 27.1428C32.1064 27.1428 34.1259 26.3903 35.615 25.0508C37.104 23.7112 37.9405 21.8944 37.9405 20C37.9405 18.1056 37.104 16.2888 35.615 14.9492C34.1259 13.6097 32.1064 12.8571 30.0006 12.8571C27.8949 12.8571 25.8753 13.6097 24.3863 14.9492C22.8973 16.2888 22.0608 18.1056 22.0608 20C22.0608 21.8944 22.8973 23.7112 24.3863 25.0508C25.8753 26.3903 27.8949 27.1428 30.0006 27.1428Z" fill="#D9D9D9"/>
<path fill-rule="evenodd" clip-rule="evenodd" d="M0.349898 21.6857C-0.116633 20.5952 -0.116633 19.3877 0.349898 18.2971C2.65954 12.91 6.72863 8.27841 12.0213 5.01231C17.3141 1.74621 23.5822 -0.00126304 30.0005 6.84939e-07C43.5204 6.84939e-07 55.0682 7.6 59.651 18.3143C60.1179 19.4029 60.1147 20.6114 59.651 21.7029C57.3414 27.09 53.2723 31.7216 47.9796 34.9877C42.6869 38.2538 36.4187 40.0013 30.0005 40C16.4805 40 4.93278 32.4 0.349898 21.6857ZM42.7042 20C42.7042 23.031 41.3658 25.9379 38.9834 28.0812C36.601 30.2245 33.3697 31.4286 30.0005 31.4286C26.6312 31.4286 23.4 30.2245 21.0176 28.0812C18.6351 25.9379 17.2967 23.031 17.2967 20C17.2967 16.969 18.6351 14.0621 21.0176 11.9188C23.4 9.77551 26.6312 8.57143 30.0005 8.57143C33.3697 8.57143 36.601 9.77551 38.9834 11.9188C41.3658 14.0621 42.7042 16.969 42.7042 20Z" fill="#D9D9D9"/>
</svg>
