<svg width="30" height="26" viewBox="0 0 30 26" fill="none" xmlns="http://www.w3.org/2000/svg">
<path d="M4.197 18.4539C3.996 18.4539 3.792 18.4191 3.597 18.3412C1.4115 17.4836 0 15.5537 0 13.4211C0 10.9234 1.9155 8.81897 4.5015 8.22174L4.5 8.05263C4.5 3.61161 8.5365 0 13.5 0C17.898 0 21.6195 2.82379 22.353 6.71187C22.491 7.44197 21.9405 8.13584 21.123 8.25797C20.307 8.36937 19.533 7.88755 19.395 7.15745C18.906 4.56584 16.4265 2.68421 13.5 2.68421C10.191 2.68421 7.5 5.09195 7.5 8.05263C7.5 8.41768 7.5405 8.78542 7.6215 9.14242L8.01 10.8469L5.8635 10.7288C4.3455 10.7368 3 11.9407 3 13.4211C3 14.488 3.7065 15.4543 4.8 15.8825C5.559 16.1804 5.904 16.9723 5.5725 17.65C5.3265 18.1533 4.776 18.4539 4.197 18.4539ZM25.5 6.71053C24.6705 6.71053 24 7.31045 24 8.05263C24 8.79482 24.6705 9.39474 25.5 9.39474C26.328 9.39474 27 9.996 27 10.7368C27 11.4777 26.328 12.0789 25.5 12.0789H11.1C10.2705 12.0789 9.6 12.6789 9.6 13.4211C9.6 14.1632 10.2705 14.7632 11.1 14.7632H18C18.828 14.7632 19.5 15.3644 19.5 16.1053C19.5 16.8461 18.828 17.4474 18 17.4474H10.5C8.019 17.4474 6 19.2538 6 21.4737C6 23.6935 8.019 25.5 10.5 25.5C11.3295 25.5 12 24.9001 12 24.1579C12 23.4157 11.3295 22.8158 10.5 22.8158C9.672 22.8158 9 22.2145 9 21.4737C9 20.7328 9.672 20.1316 10.5 20.1316H18C20.481 20.1316 22.5 18.3251 22.5 16.1053C22.5 15.6315 22.392 15.1846 22.2225 14.7632H25.5C27.981 14.7632 30 12.9567 30 10.7368C30 8.517 27.981 6.71053 25.5 6.71053Z" fill="#0F1D3B"/>
</svg>
