<svg width="44" height="51" viewBox="0 0 44 51" fill="none" xmlns="http://www.w3.org/2000/svg">
<path d="M7.85788 43.4193C0.0473721 35.9783 0.0473721 23.9139 7.85788 16.4731L22 3L36.1423 16.4731C43.9526 23.9139 43.9526 35.9783 36.1423 43.4193C28.3318 50.8602 15.6684 50.8602 7.85788 43.4193Z" stroke="#D9D9D9" stroke-width="3"/>
<path d="M29.6329 24.1353C30.1211 23.6471 30.1211 22.8543 29.6329 22.3661C29.1447 21.878 28.3519 21.878 27.8637 22.3661L15.3661 34.8637C14.878 35.3519 14.878 36.1447 15.3661 36.6329C15.8543 37.1211 16.6471 37.1211 17.1353 36.6329L29.6329 24.1353ZM20.002 24.5024C20.002 23.8395 19.7386 23.2038 19.2699 22.735C18.8011 22.2663 18.1654 22.0029 17.5024 22.0029C16.8395 22.0029 16.2038 22.2663 15.735 22.735C15.2663 23.2038 15.0029 23.8395 15.0029 24.5024C15.0029 25.1654 15.2663 25.8011 15.735 26.2699C16.2038 26.7386 16.8395 27.002 17.5024 27.002C18.1654 27.002 18.8011 26.7386 19.2699 26.2699C19.7386 25.8011 20.002 25.1654 20.002 24.5024ZM30 34.5005C30 33.8376 29.7367 33.2018 29.2679 32.7331C28.7992 32.2643 28.1634 32.001 27.5005 32.001C26.8376 32.001 26.2018 32.2643 25.7331 32.7331C25.2643 33.2018 25.001 33.8376 25.001 34.5005C25.001 35.1634 25.2643 35.7992 25.7331 36.2679C26.2018 36.7367 26.8376 37 27.5005 37C28.1634 37 28.7992 36.7367 29.2679 36.2679C29.7367 35.7992 30 35.1634 30 34.5005Z" fill="#D9D9D9"/>
</svg>
