<svg width="26" height="26" viewBox="0 0 26 26" fill="none" xmlns="http://www.w3.org/2000/svg">
<path d="M16.575 22.95C15.8712 22.95 15.3 22.3801 15.3 21.675V14.025C15.3 13.3199 15.8712 12.75 16.575 12.75C17.2788 12.75 17.85 13.3199 17.85 14.025V21.675C17.85 22.3801 17.2788 22.95 16.575 22.95ZM8.925 22.95C8.2212 22.95 7.65 22.3801 7.65 21.675V14.025C7.65 13.3199 8.2212 12.75 8.925 12.75C9.6288 12.75 10.2 13.3199 10.2 14.025V21.675C10.2 22.3801 9.6288 22.95 8.925 22.95ZM12.75 25.5C12.0462 25.5 11.475 24.9301 11.475 24.225V16.575C11.475 15.8699 12.0462 15.3 12.75 15.3C13.4538 15.3 14.025 15.8699 14.025 16.575V24.225C14.025 24.9301 13.4538 25.5 12.75 25.5ZM5.1 17.85C2.28735 17.85 0 15.5626 0 12.75C0 10.3772 1.62817 8.37803 3.82627 7.81065L3.825 7.65C3.825 3.43102 7.25602 0 11.475 0C14.7734 0 17.6256 2.08973 18.6787 5.11913C22.4221 4.80803 25.5 7.8132 25.5 11.475C25.5 14.3323 23.5786 16.8593 20.8258 17.6192C20.1437 17.8054 19.445 17.4076 19.2576 16.7305C19.0702 16.0522 19.468 15.3497 20.1475 15.1623C21.7974 14.7058 22.95 13.1899 22.95 11.475C22.95 9.36615 21.2338 7.65 19.125 7.65C18.8164 7.65 18.4888 7.70227 18.091 7.81575L16.7216 8.2059L16.4858 6.80085C16.0701 4.33755 13.9638 2.55 11.475 2.55C8.66235 2.55 6.375 4.83735 6.375 7.65C6.375 7.9968 6.40942 8.34487 6.47955 8.6802L6.79575 10.2128L4.9827 10.1924C3.69367 10.2 2.55 11.3437 2.55 12.75C2.55 14.1563 3.69367 15.3 5.1 15.3C5.8038 15.3 6.375 15.8699 6.375 16.575C6.375 17.2801 5.8038 17.85 5.1 17.85Z" fill="#0F1D3B"/>
</svg>
