<svg width="23" height="26" viewBox="0 0 23 26" fill="none" xmlns="http://www.w3.org/2000/svg">
<path d="M21.8283 17.0073L18.4119 16.3242L20.474 15.7863C21.2151 15.5921 21.6559 14.8491 21.457 14.1225C21.2596 13.3986 20.499 12.968 19.7537 13.1622L17.6569 13.7096C17.7084 13.3958 17.7556 13.0794 17.7556 12.7507C17.7556 12.422 17.7084 12.1042 17.6569 11.7904L19.7565 12.3391L20.118 12.3853C20.7312 12.3853 21.2943 11.9846 21.4598 11.3789C21.6586 10.6549 21.2179 9.90928 20.4768 9.71505L18.4147 9.17584L21.8283 8.49401C22.1286 8.43425 22.4123 8.28213 22.6306 8.04172C23.1673 7.44954 23.1131 6.54496 22.5068 6.02069C21.9006 5.49641 20.9745 5.54938 20.4378 6.14157L18.1255 8.68688L18.6789 6.67807C18.8791 5.95413 18.4384 5.20847 17.6972 5.01289C16.9589 4.82002 16.1928 5.24786 15.9925 5.97179L15.4266 8.03221C14.9177 7.62611 14.3546 7.29334 13.7317 7.05837L15.264 5.56161C15.8076 5.03054 15.8076 4.17215 15.264 3.64108C14.7203 3.11002 13.8415 3.11002 13.2979 3.64108L11.7878 5.11611L12.8905 1.8849C12.9864 1.60103 12.9947 1.28592 12.8905 0.978964C12.6346 0.229225 11.8045 -0.176883 11.037 0.0743881C10.2695 0.324301 9.85509 1.1338 10.1095 1.8849L11.2122 5.11611L9.70215 3.64108C9.15848 3.11002 8.27971 3.11002 7.73605 3.64108C7.19238 4.17215 7.19238 5.03054 7.73605 5.56161L9.26832 7.05837C8.64679 7.29334 8.08227 7.62746 7.57336 8.03221L7.01023 5.97451C6.8114 5.24922 6.04109 4.8173 5.30832 5.01289C4.56582 5.20711 4.12504 5.95006 4.32388 6.67535L4.8745 8.69231L2.56356 6.14293C2.36056 5.92018 2.08386 5.75583 1.75988 5.69064C0.967326 5.53173 0.192844 6.03019 0.0301609 6.80438C-0.132522 7.57857 0.379164 8.33646 1.17311 8.49537L4.58528 9.17855L2.52741 9.71641C1.7863 9.91064 1.34553 10.6549 1.54436 11.3802C1.70983 11.9874 2.27157 12.3867 2.88615 12.3867L3.24767 12.3405L5.34447 11.7918C5.29024 12.1055 5.24297 12.4233 5.24297 12.7507C5.24297 13.0794 5.29024 13.3958 5.34169 13.7109L3.24489 13.1622C2.50517 12.9694 1.74181 13.3972 1.54158 14.1225C1.34136 14.8464 1.78352 15.5921 2.52463 15.7863L4.58667 16.3255L1.17311 17.0073C0.872775 17.0671 0.589122 17.2192 0.370821 17.461C-0.167283 18.0532 -0.111665 18.9578 0.494572 19.4807C1.10081 20.0063 2.02824 19.952 2.56356 19.3598L4.87867 16.809L4.32527 18.8246C4.12504 19.5486 4.56582 20.2942 5.30832 20.4885L5.66983 20.5347C6.28302 20.5347 6.84477 20.1353 7.01162 19.5282L7.57614 17.4705C8.08505 17.8753 8.64818 18.2094 9.2725 18.443L7.73744 19.9397C7.19377 20.4695 7.19377 21.3292 7.73744 21.8603C8.2811 22.3913 9.15987 22.3913 9.70354 21.8603L10.6852 20.9H11.0356L10.1095 23.6151C10.0136 23.899 10.0053 24.2141 10.1095 24.521C10.3654 25.2708 11.1955 25.6769 11.963 25.4256C12.7319 25.1757 13.1463 24.3662 12.8905 23.6151L11.9644 20.9H12.3148L13.2979 21.8603C13.5704 22.1251 13.9249 22.2582 14.2809 22.2582C14.6369 22.2582 14.9928 22.1251 15.264 21.8603C15.8076 21.3306 15.8076 20.4708 15.264 19.9397L13.7317 18.4416C14.3546 18.208 14.9191 17.8739 15.428 17.4678L15.9925 19.5282C16.1594 20.1353 16.7198 20.5347 17.3343 20.5347L17.6959 20.4885C18.437 20.2942 18.8791 19.5499 18.6789 18.8246L18.1269 16.8145L20.4378 19.3598C20.6408 19.5839 20.9175 19.7469 21.2401 19.8121C22.0327 19.971 22.8085 19.4712 22.9698 18.697C23.1325 17.9228 22.6208 17.1663 21.8283 17.0073ZM11.5 16.1462C9.58257 16.1462 8.02387 14.6237 8.02387 12.7507C8.02387 10.8777 9.58257 9.35512 11.5 9.35512C13.4174 9.35512 14.9761 10.8777 14.9761 12.7507C14.9761 14.6237 13.4174 16.1462 11.5 16.1462Z" fill="#0F1D3B"/>
</svg>
