<svg width="26" height="26" viewBox="0 0 26 26" fill="none" xmlns="http://www.w3.org/2000/svg">
<path d="M14.1066 1.89624L12.7499 5.87683L11.3932 1.89624C11.1382 1.14598 11.537 0.333308 12.2873 0.0768893C13.0362 -0.178173 13.8516 0.222058 14.1066 0.970962C14.2125 1.28301 14.2043 1.60726 14.1066 1.89624ZM1.89624 11.3932L5.87683 12.7499L1.89624 14.1066C1.14598 14.3617 0.333308 13.9628 0.0768893 13.2126C-0.178173 12.4637 0.222058 11.6483 0.970962 11.3932C1.28301 11.2874 1.60726 11.2955 1.89624 11.3932ZM11.3932 23.6036L12.7499 19.623L14.1066 23.6036C14.3617 24.3539 13.9628 25.1666 13.2126 25.423C12.4637 25.678 11.6496 25.2792 11.3932 24.5289C11.2874 24.2169 11.2955 23.8926 11.3932 23.6036ZM23.6036 14.1039L19.623 12.7472L23.6036 11.3905C24.3539 11.1354 25.1666 11.5343 25.423 12.2846C25.678 13.0335 25.2792 13.8475 24.5289 14.1039C24.2169 14.2098 23.8926 14.2016 23.6036 14.1039ZM6.03421 4.11582L7.88883 7.88883L4.11582 6.03421C3.4049 5.68554 3.11185 4.82538 3.46053 4.11582C3.81056 3.40626 4.66936 3.11321 5.37892 3.46188C5.67468 3.60705 5.89854 3.84176 6.03421 4.11582ZM4.11582 19.4643L7.88883 17.6097L6.03421 21.3827C5.68554 22.0923 4.82538 22.3853 4.11582 22.0366C3.40626 21.6866 3.11321 20.8278 3.46188 20.1182C3.60705 19.8225 3.84176 19.6 4.11582 19.4643ZM19.4643 21.3827L17.6097 17.6097L21.3827 19.4643C22.0923 19.813 22.3853 20.6731 22.0366 21.3827C21.6866 22.0923 20.8278 22.3853 20.1182 22.0366C19.8225 21.8915 19.6 21.6567 19.4643 21.3827ZM21.3813 6.0315L17.607 7.88748L19.4629 4.11311C19.8116 3.40355 20.6718 3.1105 21.3813 3.45917C22.0909 3.8092 22.3839 4.668 22.0339 5.37892C21.8901 5.67332 21.6554 5.89583 21.3813 6.0315ZM12.7499 18.8551C9.38393 18.8551 6.64473 16.1159 6.64473 12.7499C6.64473 9.38393 9.38393 6.64473 12.7499 6.64473C16.1159 6.64473 18.8551 9.38393 18.8551 12.7499C18.8551 16.1159 16.1159 18.8551 12.7499 18.8551ZM12.7499 9.35815C10.879 9.35815 9.35815 10.879 9.35815 12.7499C9.35815 14.6208 10.879 16.1417 12.7499 16.1417C14.6208 16.1417 16.1417 14.6208 16.1417 12.7499C16.1417 10.879 14.6208 9.35815 12.7499 9.35815Z" fill="#0F1D3B"/>
</svg>
