<svg width="30" height="26" viewBox="0 0 30 26" fill="none" xmlns="http://www.w3.org/2000/svg">
<path d="M22.5 18.7895C21.6705 18.7895 21 18.1896 21 17.4474C21 16.7052 21.6705 16.1053 22.5 16.1053C24.981 16.1053 27 14.2988 27 12.0789C27 9.85911 24.981 8.05263 22.5 8.05263C22.143 8.05263 21.756 8.109 21.2805 8.22845L19.674 8.63242L19.395 7.15879C18.906 4.56584 16.4265 2.68421 13.5 2.68421C10.1925 2.68421 7.5 5.09195 7.5 8.05263C7.5 8.42037 7.5405 8.78408 7.623 9.13437L8.013 10.7986L5.859 10.7288C4.344 10.7368 3 11.9407 3 13.4211C3 14.9014 4.344 16.1053 6 16.1053C6.8295 16.1053 7.5 16.7052 7.5 17.4474C7.5 18.1896 6.8295 18.7895 6 18.7895C2.6925 18.7895 0 16.3817 0 13.4211C0 10.9234 1.9155 8.81897 4.503 8.22174L4.5 8.05263C4.5 3.61161 8.5365 0 13.5 0C17.3805 0 20.736 2.19837 21.9735 5.38855C26.361 5.06511 30 8.22308 30 12.0789C30 15.7791 26.6355 18.7895 22.5 18.7895ZM15.9585 13.4211L9.2085 18.8579L13.7085 20.8026L11.4585 25.5L18.2085 20.0645L13.7085 18.1184L15.9585 13.4211Z" fill="black"/>
</svg>
