<svg width="50" height="46" viewBox="0 0 50 46" fill="none" xmlns="http://www.w3.org/2000/svg">
<path d="M41.3793 0C39.7902 0 38.5057 1.46871 38.5057 3.28571C38.5057 5.10271 39.7902 6.57143 41.3793 6.57143C42.9655 6.57143 44.2529 8.04343 44.2529 9.85714C44.2529 11.6709 42.9655 13.1429 41.3793 13.1429H9.77012C8.18104 13.1429 6.89655 14.6116 6.89655 16.4286C6.89655 18.2456 8.18104 19.7143 9.77012 19.7143H27.0115C28.5977 19.7143 29.8851 21.1863 29.8851 23C29.8851 24.8137 28.5977 26.2857 27.0115 26.2857H8.62069C3.86782 26.2857 0 30.7083 0 36.1429C0 41.5774 3.86782 46 8.62069 46C10.2098 46 11.4943 44.5313 11.4943 42.7143C11.4943 40.8973 10.2098 39.4286 8.62069 39.4286C7.03448 39.4286 5.74713 37.9566 5.74713 36.1429C5.74713 34.3291 7.03448 32.8571 8.62069 32.8571H27.0115C31.7644 32.8571 35.6322 28.4346 35.6322 23C35.6322 21.8401 35.4253 20.746 35.1006 19.7143H41.3793C46.1322 19.7143 50 15.2917 50 9.85714C50 4.42257 46.1322 0 41.3793 0Z" fill="#D9D9D9"/>
</svg>
